<svg xmlns="http://www.w3.org/2000/svg" xmlns:xlink="http://www.w3.org/1999/xlink" width="184.719" height="60" viewBox="0 0 184.719 60"><defs><style>.a{fill:#20ac4a;}.b{fill:url(#a);}.c{fill:#f0f0f1;opacity:0.25;}.d{fill:url(#b);}.e{fill:url(#c);}.f{fill:url(#d);}.g{fill:url(#e);}</style><linearGradient id="a" x1="1.087" y1="0.915" x2="0.13" y2="0.238" gradientUnits="objectBoundingBox"><stop offset="0" stop-color="#379e37"/><stop offset="1" stop-color="#8abb2b"/></linearGradient><linearGradient id="b" x1="0.06" y1="0.796" x2="4.076" y2="-1.605" xlink:href="#a"/><linearGradient id="c" x1="-0.506" y1="1.374" x2="2.98" y2="-1.065" xlink:href="#a"/><linearGradient id="d" x1="-1.813" y1="1.752" x2="2.758" y2="-0.726" xlink:href="#a"/><linearGradient id="e" x1="-3.382" y1="2.15" x2="2.45" y2="-0.329" xlink:href="#a"/></defs><g transform="translate(-375 -81)"><g transform="translate(525.449 81)"><path class="a" d="M3883.567,2956.164a15.853,15.853,0,0,0,1.143-2.794,16.472,16.472,0,0,1,1.284-3.091,8.67,8.67,0,0,1,3.161-3.12v-8.136a1.86,1.86,0,0,0-1.861-1.86h-7.443a1.86,1.86,0,0,0-1.861,1.86v9.691H3868.3a1.86,1.86,0,0,0-1.859,1.861v7.443a1.859,1.859,0,0,0,1.859,1.861h9.617A7.638,7.638,0,0,0,3883.567,2956.164Z" transform="translate(-3866.439 -2937.163)"/><path class="b" d="M3934.107,2983.974h-9.673a7.267,7.267,0,0,0-2.041,2.229,15.329,15.329,0,0,0-1.174,2.849,17.068,17.068,0,0,1-1.246,3.027,8.984,8.984,0,0,1-6.724,4.382v8.371a1.859,1.859,0,0,0,1.86,1.859h7.443a1.86,1.86,0,0,0,1.862-1.859v-9.692h9.691a1.862,1.862,0,0,0,1.86-1.861v-7.445A1.862,1.862,0,0,0,3934.107,2983.974Z" transform="translate(-3901.698 -2972.422)"/><path class="c" d="M3889.11,2938.618a1.861,1.861,0,0,0-1.815-1.455h-7.443a1.86,1.86,0,0,0-1.861,1.86v9.691H3868.3a1.86,1.86,0,0,0-1.859,1.861v7.443a1.855,1.855,0,0,0,.123.663,14.611,14.611,0,0,0,11.39-5.473,29.918,29.918,0,0,0,2.937-4.971,31.5,31.5,0,0,1,3.285-5.494A16.376,16.376,0,0,1,3889.11,2938.618Z" transform="translate(-3866.439 -2937.163)"/></g><g transform="translate(416.102 109.564)"><path class="d" d="M3438.938,3076.755a8.374,8.374,0,0,0,6.972-3.712l5.652,5.363a15.881,15.881,0,0,1-12.788,5.941,14.862,14.862,0,0,1-10.953-4.5,15.308,15.308,0,0,1-4.476-11.262,15.359,15.359,0,0,1,15.593-15.676,15.794,15.794,0,0,1,12,5.2l-5.609,5.281a7.826,7.826,0,0,0-6.271-2.888,7.393,7.393,0,0,0-5.734,2.455,8.137,8.137,0,0,0-2.227,5.631,8.236,8.236,0,0,0,2.227,5.713A7.254,7.254,0,0,0,3438.938,3076.755Z" transform="translate(-3423.345 -3052.912)"/><path class="e" d="M3560.147,3052.912h.412l16.048,30.609-.248.33h-7.838l-1.857-4.042h-12.748l-1.9,4.042h-7.673l-.247-.33Zm.207,13.077-3.3,7.054h6.518Z" transform="translate(-3514.3 -3052.912)"/><path class="f" d="M3697.825,3085.364h-7.674v-30.445h12.624a11.53,11.53,0,0,1,7.736,2.763q3.237,2.763,3.238,8.086,0,6.147-4.538,9.2l5.734,10.066-.166.331h-7.838l-4.662-8.25h-4.455Zm3.258-23.68h-3.258v8.663h2.64a6.288,6.288,0,0,0,4.023-1.2,3.94,3.94,0,0,0,1.506-3.259,3.706,3.706,0,0,0-1.4-3.137A5.6,5.6,0,0,0,3701.083,3061.684Z" transform="translate(-3624.307 -3054.424)"/><path class="g" d="M3826.464,3078.1v7.261h-19.429v-30.445h19.429v7.26h-11.757v5.239h9.7v6.765h-9.7v3.92Z" transform="translate(-3712.347 -3054.424)"/></g><g transform="translate(375 91.845)"><path class="a" d="M3294.062,3015.253q0,7.394-4.5,11.185t-12.545,3.792h-20.229v-49.122h18.795q7.109,0,11.429,3.131a10.427,10.427,0,0,1,4.316,8.986,11.353,11.353,0,0,1-1.755,6.222,10.719,10.719,0,0,1-4.332,4.025,12.467,12.467,0,0,1,6.31,4.031A11.6,11.6,0,0,1,3294.062,3015.253Zm-20.967-24.558h-3.927v9.452h3.4q6.386,0,6.386-5.059Q3278.95,2990.692,3273.1,2990.695Zm.931,19.033h-4.858v10.92h4.656a10.015,10.015,0,0,0,5.6-1.4,4.549,4.549,0,0,0,2.129-4.057,4.73,4.73,0,0,0-1.831-4.192Q3277.884,3009.728,3274.027,3009.728Z" transform="translate(-3256.792 -2981.108)"/></g></g></svg>